<?xml version="1.0" standalone="no"?>
<!DOCTYPE svg PUBLIC "-//W3C//DTD SVG 20010904//EN"
 "http://www.w3.org/TR/2001/REC-SVG-20010904/DTD/svg10.dtd">
<svg version="1.0" xmlns="http://www.w3.org/2000/svg"
 width="187.000000pt" height="99.000000pt" viewBox="0 0 187.000000 99.000000"
 preserveAspectRatio="xMidYMid meet">

<g transform="translate(0.000000,99.000000) scale(0.100000,-0.100000)"
fill="#000000" stroke="none">
<path d="M1227 922 c-39 -26 -87 -95 -103 -149 -9 -31 -14 -97 -14 -198 0
-148 -1 -153 -30 -211 -36 -73 -100 -144 -129 -144 -20 0 -21 4 -21 131 0 121
-1 131 -17 123 -10 -4 -48 -7 -84 -5 -59 2 -70 -1 -114 -31 -51 -34 -143 -143
-132 -155 4 -3 16 2 27 12 20 18 20 17 20 -7 0 -41 20 -86 45 -102 14 -9 45
-16 69 -16 36 0 52 6 79 30 40 35 47 37 47 12 0 -46 56 -55 111 -18 20 14 56
55 80 91 l44 67 5 -82 c6 -83 14 -100 53 -100 32 0 74 28 126 87 l51 57 0 -33
c0 -39 23 -87 49 -101 11 -5 40 -10 65 -10 36 0 52 6 79 30 40 35 47 37 47 12
0 -67 89 -52 154 24 48 58 28 75 -21 19 -17 -19 -41 -35 -52 -35 -20 0 -21 5
-21 131 0 121 -1 131 -17 123 -17 -7 -33 -8 -108 -4 -53 3 -116 -40 -194 -134
-76 -90 -118 -129 -132 -120 -5 3 -9 63 -9 135 l0 129 55 90 c112 180 147 290
111 345 -20 31 -77 34 -119 7z m84 -39 c22 -58 -10 -158 -95 -298 l-36 -60 0
142 c0 78 5 154 11 170 27 72 99 100 120 46z m-462 -452 c13 -13 19 -34 20
-79 1 -51 -3 -65 -24 -91 -32 -37 -58 -46 -94 -31 -50 20 -66 91 -35 156 28
59 96 82 133 45z m702 9 c16 -9 19 -22 19 -89 0 -76 -1 -80 -31 -105 -34 -29
-47 -31 -82 -15 -68 31 -61 165 11 203 32 18 57 20 83 6z"/>
<path d="M165 715 c-10 -53 -15 -98 -12 -101 12 -12 27 8 27 35 0 48 32 67
109 62 36 -2 94 -4 128 -5 40 0 59 -4 55 -11 -3 -5 -33 -41 -65 -79 -150 -175
-203 -305 -163 -401 35 -84 139 -72 171 20 16 49 12 56 -16 22 -43 -56 -107
-16 -97 61 13 92 81 220 191 359 76 97 86 123 33 92 l-35 -20 -76 21 c-82 23
-113 21 -178 -12 l-39 -19 4 32 c2 18 -2 34 -8 36 -8 3 -18 -30 -29 -92z"/>
</g>
</svg>
