<?xml version="1.0" standalone="no"?>
<!DOCTYPE svg PUBLIC "-//W3C//DTD SVG 20010904//EN"
 "http://www.w3.org/TR/2001/REC-SVG-20010904/DTD/svg10.dtd">
<svg version="1.0" xmlns="http://www.w3.org/2000/svg"
 width="763.000000pt" height="193.000000pt" viewBox="0 0 763.000000 193.000000"
 preserveAspectRatio="xMidYMid meet">

<g transform="translate(0.000000,193.000000) scale(0.100000,-0.100000)"
fill="#000000" stroke="none">
<path d="M3920 1713 c0 -27 19 -43 51 -43 15 0 30 -4 33 -8 2 -4 -5 -55 -18
-113 -24 -115 -46 -153 -129 -224 -87 -75 -123 -55 -112 62 3 40 12 91 20 114
l15 41 -33 -6 c-36 -8 -47 -8 -132 0 -48 4 -66 1 -91 -15 -116 -72 -155 -272
-64 -321 41 -22 119 35 185 133 l33 48 4 -60 c9 -129 85 -135 206 -18 l52 51
0 -50 c0 -122 90 -144 188 -46 l41 41 13 -42 c31 -100 129 -71 221 65 17 26
35 48 40 48 4 0 7 -24 7 -53 0 -100 54 -125 143 -66 79 52 202 209 164 209 -8
0 -26 -15 -40 -33 -42 -55 -117 -124 -148 -137 -23 -10 -32 -10 -44 0 -20 16
-20 116 0 190 8 30 15 56 15 58 0 7 -48 0 -57 -9 -9 -9 -20 -9 -44 0 -44 15
-105 14 -137 -3 -39 -21 -85 -73 -117 -134 -59 -109 -165 -171 -181 -106 -4
15 10 109 35 232 22 113 39 207 37 210 -2 2 -14 -2 -26 -8 -22 -12 -80 -10
-112 4 -14 6 -18 3 -18 -11z m-257 -229 c15 -8 27 -19 27 -24 0 -18 -126 -175
-152 -190 -66 -36 -91 57 -43 156 40 82 88 98 168 58z m765 -1 c17 -8 32 -17
32 -20 0 -2 -30 -44 -66 -92 -67 -90 -97 -116 -129 -109 -42 7 -36 123 9 190
39 59 78 67 154 31z"/>
<path d="M3045 1639 c-4 -12 -2 -26 4 -32 5 -5 58 -12 115 -15 l106 -5 -55
-59 c-69 -75 -110 -134 -145 -211 -42 -94 -46 -122 -18 -141 43 -30 58 -22 58
34 0 94 64 219 173 336 39 42 57 70 57 88 l0 26 -144 0 c-138 0 -145 -1 -151
-21z"/>
<path d="M1900 907 c-19 -5 -54 -7 -77 -4 -24 2 -43 1 -43 -4 0 -18 41 -49 65
-49 14 0 25 -2 25 -3 0 -2 -13 -71 -30 -152 -48 -235 -39 -290 51 -316 99 -30
218 67 219 179 0 32 1 32 48 32 l48 0 -4 -63 c-5 -79 14 -122 63 -143 43 -18
59 -18 122 1 62 19 163 92 206 151 18 24 34 43 37 44 6 0 63 -101 58 -104 -1
-1 -24 -15 -51 -30 -60 -34 -83 -67 -67 -95 23 -45 116 -40 164 9 24 24 31 39
31 74 1 41 5 47 48 80 26 20 49 36 52 36 3 0 5 -27 5 -61 0 -54 3 -64 29 -90
34 -33 47 -35 99 -13 50 20 92 62 92 92 0 23 0 23 -31 -7 -17 -17 -37 -31 -44
-31 -7 0 -20 -3 -28 -6 -9 -3 -25 4 -37 16 -19 19 -22 30 -17 75 3 29 13 80
22 114 l18 61 106 0 c101 0 131 7 131 32 0 4 -50 8 -111 8 -110 0 -110 0 -104
23 4 12 13 32 21 44 19 30 18 33 -9 33 -28 0 -63 -35 -72 -72 -6 -24 -12 -28
-42 -28 -37 0 -73 -15 -73 -30 0 -6 21 -10 46 -10 50 0 50 0 22 -73 -10 -25
-118 -117 -138 -117 -5 0 -23 25 -40 55 l-32 56 26 20 c32 25 34 64 5 80 -18
9 -25 7 -49 -16 -15 -14 -33 -44 -39 -67 -15 -49 -126 -164 -186 -192 -88 -42
-155 -28 -170 35 -6 25 -4 26 41 33 57 7 130 42 155 75 25 31 25 85 -1 111
-40 40 -144 19 -207 -42 -29 -28 -35 -30 -90 -26 -48 4 -64 10 -92 36 -31 30
-87 54 -103 45 -27 -15 13 -73 59 -87 33 -10 41 -80 15 -137 -23 -53 -48 -77
-88 -85 -37 -7 -79 24 -87 63 -3 16 12 120 34 231 22 112 39 207 37 211 -2 4
-19 3 -38 -2z m518 -258 c3 -30 -2 -41 -28 -62 -32 -28 -105 -55 -117 -44 -3
4 -1 24 6 46 15 51 73 103 109 99 23 -3 27 -8 30 -39z m292 -233 c0 -42 -22
-66 -60 -66 -38 0 -44 23 -12 53 23 20 60 46 70 47 1 0 2 -15 2 -34z"/>
<path d="M4850 908 c-14 -5 -51 -8 -83 -6 -61 3 -71 -6 -37 -37 12 -11 29 -16
45 -13 14 3 28 2 30 -3 3 -4 -2 -40 -11 -79 -15 -66 -18 -71 -38 -65 -103 32
-173 7 -233 -85 -46 -70 -69 -96 -117 -131 -43 -32 -81 -37 -90 -13 -11 28 -6
128 9 184 8 30 12 56 10 59 -3 2 -22 -1 -44 -9 -28 -9 -43 -9 -59 -1 -11 6
-41 11 -65 11 -54 0 -100 -28 -142 -89 -91 -130 -197 -211 -277 -211 -45 0
-78 28 -78 65 0 20 5 25 25 25 46 0 133 40 164 76 37 42 39 77 6 109 -28 29
-85 33 -138 12 -41 -18 -106 -90 -113 -127 -8 -37 -96 -136 -128 -142 -67 -13
-69 20 -21 260 19 95 35 179 35 187 0 11 -10 13 -44 9 -25 -4 -58 -2 -75 4
-19 7 -33 7 -36 1 -9 -13 41 -59 65 -59 26 0 26 -9 -10 -178 -45 -212 -39
-272 29 -287 38 -8 78 13 129 66 l39 40 12 -29 c7 -17 24 -41 38 -54 51 -48
171 -22 269 58 30 25 54 41 55 37 6 -59 20 -93 44 -109 20 -13 30 -14 59 -4
36 12 109 83 141 138 11 17 23 32 27 32 4 0 8 -24 8 -53 0 -118 79 -131 189
-31 l38 34 6 -43 c7 -53 47 -92 85 -82 49 12 108 69 169 161 11 16 12 12 7
-28 -7 -55 10 -114 37 -129 31 -16 82 6 144 63 47 43 56 47 60 31 32 -104 120
-128 242 -66 29 14 78 50 110 79 31 29 58 52 59 51 1 -1 -4 -32 -11 -69 -10
-53 -10 -71 0 -84 14 -20 55 -10 55 13 0 24 58 133 101 189 49 63 82 83 111
65 17 -10 23 -10 39 5 24 21 21 57 -4 62 -54 10 -111 -33 -183 -138 -26 -39
-49 -69 -50 -67 -2 1 4 38 13 80 17 87 12 104 -31 93 -20 -5 -26 -13 -26 -35
0 -20 -15 -47 -44 -83 -103 -127 -233 -182 -291 -123 -40 39 -33 61 20 68 95
13 175 73 175 131 0 48 -31 76 -84 76 -83 -1 -152 -53 -189 -141 -15 -37 -116
-134 -148 -142 -13 -4 -25 2 -35 18 -17 27 -18 21 33 278 19 99 33 180 31 182
-2 1 -14 -2 -28 -7z m-1024 -242 c7 -27 -9 -62 -40 -87 -23 -20 -103 -45 -112
-36 -12 11 19 78 51 112 41 44 91 49 101 11z m1382 -9 c6 -52 -39 -95 -115
-112 -29 -6 -33 -4 -33 15 0 86 139 177 148 97z m-983 6 c19 -9 35 -19 35 -22
0 -3 -30 -45 -66 -94 -74 -98 -110 -125 -140 -102 -39 28 -9 174 44 215 30 24
80 26 127 3z m500 3 c19 -8 35 -20 35 -27 0 -19 -85 -132 -129 -172 -35 -31
-45 -36 -61 -27 -11 6 -23 22 -26 36 -11 41 14 126 47 167 34 42 73 48 134 23z"/>
<path d="M700 885 c0 -41 -34 -50 -213 -53 -165 -4 -168 -4 -184 -28 -21 -32
-14 -37 38 -25 70 16 109 14 109 -6 0 -10 -16 -100 -36 -200 -20 -101 -34
-189 -31 -197 4 -10 14 -13 33 -7 20 5 28 14 30 36 2 17 19 108 39 204 19 96
35 176 35 178 0 2 27 3 60 3 64 0 122 18 136 43 5 8 25 17 44 18 43 4 44 22
-11 -248 -23 -111 -39 -209 -35 -218 11 -29 49 -14 58 23 12 44 92 179 131
220 32 33 60 41 74 20 4 -7 10 -57 13 -110 7 -108 22 -138 70 -138 26 0 110
54 110 71 0 22 16 6 32 -31 53 -128 262 -65 402 120 35 47 44 66 35 74 -8 8
-17 3 -33 -19 -80 -110 -175 -182 -252 -191 -56 -7 -90 13 -96 55 -3 21 3 25
62 40 78 19 127 52 146 97 28 67 -14 110 -98 102 -72 -7 -124 -48 -165 -128
-32 -64 -93 -130 -119 -130 -22 0 -31 31 -36 121 -5 107 -22 139 -73 139 -44
0 -94 -43 -147 -125 -22 -33 -37 -51 -34 -40 3 11 9 38 15 60 6 22 19 85 30
140 10 55 22 111 26 125 l6 25 -85 0 c-79 0 -86 -2 -86 -20z m710 -214 c13
-26 -1 -62 -36 -90 -30 -24 -101 -48 -111 -38 -14 14 19 86 52 116 41 35 79
40 95 12z"/>
<path d="M6303 733 c-9 -3 -6 -16 12 -47 14 -24 25 -50 25 -59 0 -28 -127
-154 -183 -181 -88 -44 -167 -26 -167 38 0 20 6 24 45 29 88 12 175 79 175
133 0 40 -42 74 -90 74 -57 0 -99 -20 -142 -68 -68 -75 -77 -188 -19 -246 27
-27 38 -31 84 -30 81 0 156 40 244 130 41 41 76 74 77 72 11 -13 29 -107 30
-153 1 -48 4 -55 21 -55 35 0 62 27 128 128 78 119 94 156 77 177 -17 20 -40
19 -40 -2 -1 -44 -99 -233 -121 -233 -4 0 -12 29 -18 64 -14 81 -44 169 -71
206 -20 28 -39 35 -67 23z m-157 -67 c7 -27 -9 -62 -40 -87 -24 -20 -103 -45
-113 -36 -12 12 29 97 58 122 40 33 86 34 95 1z"/>
<path d="M6770 698 c-68 -35 -104 -93 -108 -176 -3 -80 9 -110 58 -135 70 -36
183 3 287 99 31 29 59 52 61 50 2 -2 -1 -21 -7 -43 -14 -48 -14 -110 -1 -118
16 -10 50 5 50 21 0 23 59 133 101 189 48 64 82 84 111 66 17 -10 23 -10 39 5
29 27 21 58 -16 62 -45 4 -105 -44 -167 -133 -28 -41 -53 -73 -54 -72 -2 1 4
38 13 80 17 87 12 104 -32 93 -19 -5 -25 -11 -20 -24 12 -40 -112 -179 -194
-218 -20 -9 -53 -19 -76 -21 -47 -6 -80 16 -90 58 -6 25 -4 26 40 32 97 14
175 72 175 131 0 74 -80 99 -170 54z m108 -41 c6 -52 -39 -95 -115 -112 -29
-6 -33 -4 -33 15 0 86 139 177 148 97z"/>
</g>
</svg>
