<?xml version="1.0" standalone="no"?>
<!DOCTYPE svg PUBLIC "-//W3C//DTD SVG 20010904//EN"
 "http://www.w3.org/TR/2001/REC-SVG-20010904/DTD/svg10.dtd">
<svg version="1.0" xmlns="http://www.w3.org/2000/svg"
 width="56.000000pt" height="99.000000pt" viewBox="0 0 56.000000 99.000000"
 preserveAspectRatio="xMidYMid meet">

<g transform="translate(0.000000,99.000000) scale(0.100000,-0.100000)"
fill="#000000" stroke="none">
<path d="M165 715 c-10 -53 -15 -98 -12 -101 12 -12 27 8 27 35 0 48 32 67
109 62 36 -2 94 -4 128 -5 40 0 59 -4 55 -11 -3 -5 -33 -41 -65 -79 -150 -175
-203 -305 -163 -401 35 -84 139 -72 171 20 16 49 12 56 -16 22 -43 -56 -107
-16 -97 61 13 92 81 220 191 359 76 97 86 123 33 92 l-35 -20 -76 21 c-82 23
-113 21 -178 -12 l-39 -19 4 32 c2 18 -2 34 -8 36 -8 3 -18 -30 -29 -92z"/>
</g>
</svg>
